<svg xmlns="http://www.w3.org/2000/svg" width="20" height="20" viewBox="0 0 20 20" fill="none">
  <path d="M14.1667 10.8333V4.16667C14.1667 3.94566 14.2545 3.7337 14.4107 3.57742C14.567 3.42114 14.779 3.33334 15 3.33334H16.6667C16.8877 3.33334 17.0996 3.42114 17.2559 3.57742C17.4122 3.7337 17.5 3.94566 17.5 4.16667V10C17.5 10.221 17.4122 10.433 17.2559 10.5893C17.0996 10.7455 16.8877 10.8333 16.6667 10.8333H14.1667ZM14.1667 10.8333C13.2826 10.8333 12.4348 11.1845 11.8096 11.8096C11.1845 12.4348 10.8333 13.2826 10.8333 14.1667V15C10.8333 15.442 10.6577 15.866 10.3452 16.1785C10.0326 16.4911 9.60869 16.6667 9.16667 16.6667C8.72464 16.6667 8.30072 16.4911 7.98816 16.1785C7.6756 15.866 7.5 15.442 7.5 15V10.8333H5C4.55797 10.8333 4.13405 10.6577 3.82149 10.3452C3.50893 10.0326 3.33333 9.6087 3.33333 9.16667L4.16667 5.00001C4.28651 4.48878 4.51386 4.0498 4.81446 3.7492C5.11506 3.4486 5.47264 3.30265 5.83333 3.33334H11.6667C12.3297 3.33334 12.9656 3.59673 13.4344 4.06557C13.9033 4.53441 14.1667 5.1703 14.1667 5.83334" stroke="#98A9BC" stroke-width="1.66667" stroke-linecap="round" stroke-linejoin="round"/>
</svg>