<svg xmlns="http://www.w3.org/2000/svg" width="27" height="6" viewBox="0 0 27 6" fill="none">
  <g opacity="0.444847">
    <path d="M3 6C4.65685 6 6 4.65685 6 3C6 1.34315 4.65685 0 3 0C1.34315 0 0 1.34315 0 3C0 4.65685 1.34315 6 3 6Z" fill="#778CA2"/>
    <path d="M13.5 6C15.1569 6 16.5 4.65685 16.5 3C16.5 1.34315 15.1569 0 13.5 0C11.8431 0 10.5 1.34315 10.5 3C10.5 4.65685 11.8431 6 13.5 6Z" fill="#98A9BC"/>
    <path d="M24 6C25.6569 6 27 4.65685 27 3C27 1.34315 25.6569 0 24 0C22.3431 0 21 1.34315 21 3C21 4.65685 22.3431 6 24 6Z" fill="#C3CEDA"/>
  </g>
</svg>