<svg xmlns="http://www.w3.org/2000/svg" width="20" height="20" viewBox="0 0 20 20" fill="none">
  <path d="M5.83333 9.16666V15.8333C5.83333 16.0543 5.74554 16.2663 5.58926 16.4226C5.43298 16.5789 5.22101 16.6667 5 16.6667H3.33333C3.11232 16.6667 2.90036 16.5789 2.74408 16.4226C2.5878 16.2663 2.5 16.0543 2.5 15.8333V9.99999C2.5 9.77898 2.5878 9.56702 2.74408 9.41074C2.90036 9.25446 3.11232 9.16666 3.33333 9.16666H5.83333ZM5.83333 9.16666C6.71739 9.16666 7.56523 8.81547 8.19036 8.19035C8.81548 7.56523 9.16667 6.71738 9.16667 5.83333V4.99999C9.16667 4.55797 9.34226 4.13404 9.65482 3.82148C9.96738 3.50892 10.3913 3.33333 10.8333 3.33333C11.2754 3.33333 11.6993 3.50892 12.0118 3.82148C12.3244 4.13404 12.5 4.55797 12.5 4.99999V9.16666H15C15.442 9.16666 15.866 9.34226 16.1785 9.65482C16.4911 9.96738 16.6667 10.3913 16.6667 10.8333L15.8333 15C15.7135 15.5112 15.4861 15.9502 15.1855 16.2508C14.8849 16.5514 14.5274 16.6973 14.1667 16.6667H8.33333C7.67029 16.6667 7.03441 16.4033 6.56557 15.9344C6.09673 15.4656 5.83333 14.8297 5.83333 14.1667" stroke="#98A9BC" stroke-width="1.66667" stroke-linecap="round" stroke-linejoin="round"/>
</svg>